<?xml version="1.0" encoding="utf-8" ?>
<svg baseProfile="tiny" height="200mm" version="1.2" width="200mm" xmlns="http://www.w3.org/2000/svg" xmlns:ev="http://www.w3.org/2001/xml-events" xmlns:xlink="http://www.w3.org/1999/xlink"><defs /><polygon fill="none" points="125.0,100.0 112.5,121.6506 87.5,121.6506 75.0,100.0 87.5,78.3494 112.5,78.3494" stroke="blue" stroke-dasharray="2,2" /><line stroke="red" x1="125.0" x2="107.6795" y1="100.0" y2="90.0" /><line stroke="red" x1="107.6795" x2="95.1795" y1="90.0" y2="111.6506" /><line stroke="red" x1="95.1795" x2="112.5" y1="111.6506" y2="121.6506" /><line stroke="red" x1="107.6795" x2="105.1795" y1="90.0" y2="94.3301" /><line stroke="red" x1="112.5" x2="112.5" y1="121.6506" y2="101.6506" /><line stroke="red" x1="112.5" x2="87.5" y1="101.6506" y2="101.6506" /><line stroke="red" x1="87.5" x2="87.5" y1="101.6506" y2="121.6506" /><line stroke="red" x1="112.5" x2="107.5" y1="101.6506" y2="101.6506" /><line stroke="red" x1="87.5" x2="104.8205" y1="121.6506" y2="111.6506" /><line stroke="red" x1="104.8205" x2="92.3205" y1="111.6506" y2="90.0" /><line stroke="red" x1="92.3205" x2="75.0" y1="90.0" y2="100.0" /><line stroke="red" x1="104.8205" x2="102.3205" y1="111.6506" y2="107.3205" /><line stroke="red" x1="75.0" x2="92.3205" y1="100.0" y2="110.0" /><line stroke="red" x1="92.3205" x2="104.8205" y1="110.0" y2="88.3494" /><line stroke="red" x1="104.8205" x2="87.5" y1="88.3494" y2="78.3494" /><line stroke="red" x1="92.3205" x2="94.8205" y1="110.0" y2="105.6699" /><line stroke="red" x1="87.5" x2="87.5" y1="78.3494" y2="98.3494" /><line stroke="red" x1="87.5" x2="112.5" y1="98.3494" y2="98.3494" /><line stroke="red" x1="112.5" x2="112.5" y1="98.3494" y2="78.3494" /><line stroke="red" x1="87.5" x2="92.5" y1="98.3494" y2="98.3494" /><line stroke="red" x1="112.5" x2="95.1795" y1="78.3494" y2="88.3494" /><line stroke="red" x1="95.1795" x2="107.6795" y1="88.3494" y2="110.0" /><line stroke="red" x1="107.6795" x2="125.0" y1="110.0" y2="100.0" /><line stroke="red" x1="95.1795" x2="97.6795" y1="88.3494" y2="92.6795" /></svg>