<?xml version="1.0" encoding="utf-8" ?>
<svg baseProfile="tiny" height="200mm" version="1.2" width="200mm" xmlns="http://www.w3.org/2000/svg" xmlns:ev="http://www.w3.org/2001/xml-events" xmlns:xlink="http://www.w3.org/1999/xlink"><defs /><polygon fill="none" points="126.0,100.0 113.0,122.5167 87.0,122.5167 74.0,100.0 87.0,77.4833 113.0,77.4833" stroke="blue" stroke-dasharray="2,2" /><line stroke="red" x1="126.0" x2="113.0096" y1="100.0" y2="92.5" /><line stroke="red" x1="113.0096" x2="100.0096" y1="92.5" y2="115.0167" /><line stroke="red" x1="100.0096" x2="113.0" y1="115.0167" y2="122.5167" /><line stroke="red" x1="113.0096" x2="110.4096" y1="92.5" y2="97.0033" /><line stroke="red" x1="113.0" x2="113.0" y1="122.5167" y2="107.5167" /><line stroke="red" x1="113.0" x2="87.0" y1="107.5167" y2="107.5167" /><line stroke="red" x1="87.0" x2="87.0" y1="107.5167" y2="122.5167" /><line stroke="red" x1="113.0" x2="107.8" y1="107.5167" y2="107.5167" /><line stroke="red" x1="87.0" x2="99.9904" y1="122.5167" y2="115.0167" /><line stroke="red" x1="99.9904" x2="86.9904" y1="115.0167" y2="92.5" /><line stroke="red" x1="86.9904" x2="74.0" y1="92.5" y2="100.0" /><line stroke="red" x1="99.9904" x2="97.3904" y1="115.0167" y2="110.5133" /><line stroke="red" x1="74.0" x2="86.9904" y1="100.0" y2="107.5" /><line stroke="red" x1="86.9904" x2="99.9904" y1="107.5" y2="84.9833" /><line stroke="red" x1="99.9904" x2="87.0" y1="84.9833" y2="77.4833" /><line stroke="red" x1="86.9904" x2="89.5904" y1="107.5" y2="102.9967" /><line stroke="red" x1="87.0" x2="87.0" y1="77.4833" y2="92.4833" /><line stroke="red" x1="87.0" x2="113.0" y1="92.4833" y2="92.4833" /><line stroke="red" x1="113.0" x2="113.0" y1="92.4833" y2="77.4833" /><line stroke="red" x1="87.0" x2="92.2" y1="92.4833" y2="92.4833" /><line stroke="red" x1="113.0" x2="100.0096" y1="77.4833" y2="84.9833" /><line stroke="red" x1="100.0096" x2="113.0096" y1="84.9833" y2="107.5" /><line stroke="red" x1="113.0096" x2="126.0" y1="107.5" y2="100.0" /><line stroke="red" x1="100.0096" x2="102.6096" y1="84.9833" y2="89.4867" /></svg>